<svg xmlns="http://www.w3.org/2000/svg" viewBox="0 0 202.77 111.5"><defs><style>.cls-1{fill:#231f20;}.cls-2,.cls-3,.cls-4{fill:none;stroke:#231f20;stroke-miterlimit:10;}.cls-2{stroke-width:3px;}.cls-3{stroke-width:4.55px;}.cls-4{stroke-width:4.55px;}</style></defs><title>Asset 21</title><g id="Layer_2" data-name="Layer 2"><g id="Layer_1-2" data-name="Layer 1"><path class="cls-1" d="M24.45,92.39h7.41c5.83,0,9.75,3.75,9.75,9.1s-3.92,9.1-9.75,9.1H24.45Zm7.31,16.54c4.83,0,8-3.07,8-7.44s-3.12-7.43-7.95-7.43H26.38v14.87Z" transform="translate(0)"/><path class="cls-1" d="M31.86,111.34H23.7V91.64h8.16c6.19,0,10.5,4,10.5,9.85S38.05,111.34,31.86,111.34Zm-6.66-1.5h6.66c5.39,0,9-3.35,9-8.35s-3.61-8.35-9-8.35H25.2Zm6.56-.16H25.63V93.31h6.13c5.21,0,8.7,3.29,8.7,8.18S37,109.68,31.76,109.68Zm-4.63-1.5h4.63c4.31,0,7.2-2.69,7.2-6.69s-2.89-6.68-7.2-6.68H27.13Z" transform="translate(0)"/><path class="cls-1" d="M65.12,108.93v1.66H52.25V92.39H64.73v1.67H54.17v6.47h9.41v1.64H54.17v6.76Z" transform="translate(0)"/><path class="cls-1" d="M65.87,111.34H51.5V91.64h14v3.17H54.92v5h9.41v3.14H54.92v5.26h11ZM53,109.84H64.37v-.16h-11v-8.26h9.41v-.14H53.42v-8H64v-.17H53Z" transform="translate(0)"/><path class="cls-1" d="M74.22,108.38,75,106.9a8.9,8.9,0,0,0,6,2.21c3.4,0,4.88-1.43,4.88-3.22,0-5-11.2-1.93-11.2-8.66,0-2.68,2.08-5,6.71-5A10.32,10.32,0,0,1,87,93.85l-.65,1.53a9.39,9.39,0,0,0-5-1.5c-3.33,0-4.81,1.48-4.81,3.3,0,5,11.2,2,11.2,8.6,0,2.68-2.13,5-6.78,5C78.25,110.75,75.57,109.79,74.22,108.38Z" transform="translate(0)"/><path class="cls-1" d="M81,111.5c-2.92,0-5.79-1-7.3-2.59l-.37-.39,1.45-2.87.73.72a8.19,8.19,0,0,0,5.49,2c2.63,0,4.13-.9,4.13-2.47s-1.67-2.13-4.4-2.79c-3-.74-6.8-1.66-6.8-5.87,0-2.65,2-5.74,7.46-5.74a11,11,0,0,1,6.07,1.74l.5.35L86.7,96.5,86,96a8.67,8.67,0,0,0-4.58-1.38c-2.58,0-4.06.93-4.06,2.55S79,99.32,81.74,100c3,.74,6.77,1.66,6.77,5.79C88.51,108.42,86.54,111.5,81,111.5Zm-5.84-3.28A9.7,9.7,0,0,0,81,110c3.72,0,6-1.61,6-4.22s-2.22-3.5-5.62-4.33c-2.62-.64-5.58-1.36-5.58-4.27,0-2,1.46-4.05,5.56-4.05A10.08,10.08,0,0,1,86,94.31l.07-.16A9.91,9.91,0,0,0,81.37,93c-3.73,0-6,1.58-6,4.24,0,2.82,2.24,3.58,5.66,4.41,2.6.63,5.54,1.35,5.54,4.25,0,1.92-1.48,4-5.63,4a10.21,10.21,0,0,1-5.77-1.78Z" transform="translate(0)"/><path class="cls-1" d="M98.27,92.39h1.92v18.2H98.27Z" transform="translate(0)"/><path class="cls-1" d="M100.94,111.34H97.52V91.64h3.42ZM99,109.84h.42V93.14H99Z" transform="translate(0)"/><path class="cls-1" d="M125.25,101.49h1.85v7a10.07,10.07,0,0,1-6.68,2.31c-5.54,0-9.6-3.93-9.6-9.26s4.06-9.25,9.62-9.25a9,9,0,0,1,6.76,2.62L126,96.09a7.69,7.69,0,1,0-5.51,13,7.88,7.88,0,0,0,4.75-1.41Z" transform="translate(0)"/><path class="cls-1" d="M120.42,111.5c-5.9,0-10.35-4.3-10.35-10s4.36-10,10.37-10a9.61,9.61,0,0,1,7.31,2.87l.49.52L126,97.15l-.54-.53a6.62,6.62,0,0,0-5-1.92,6.8,6.8,0,1,0,0,13.59,7.21,7.21,0,0,0,4-1.06v-6.49h3.35v8l-.25.23A10.73,10.73,0,0,1,120.42,111.5Zm0-18.51c-5.14,0-8.87,3.58-8.87,8.5s3.72,8.51,8.85,8.51a9.46,9.46,0,0,0,5.93-1.91v-5.85H126V108l-.31.23a8.56,8.56,0,0,1-5.19,1.55A8.3,8.3,0,1,1,126,95.05l.16-.17A8.46,8.46,0,0,0,120.44,93Z" transform="translate(0)"/><path class="cls-1" d="M154.06,92.39v18.2h-1.58l-11.7-14.76v14.76h-1.93V92.39h1.59l11.72,14.77V92.39Z" transform="translate(0)"/><path class="cls-1" d="M154.81,111.34h-2.7L141.53,98v13.36H138.1V91.64h2.7L151.41,105V91.64h3.4Zm-2-1.5h.47V93.14h-.4v16.17L140.08,93.14h-.48v16.7H140V93.67Z" transform="translate(0)"/><path class="cls-1" d="M164.57,108.38l.75-1.48a8.9,8.9,0,0,0,6,2.21c3.4,0,4.88-1.43,4.88-3.22,0-5-11.2-1.93-11.2-8.66,0-2.68,2.08-5,6.71-5a10.32,10.32,0,0,1,5.64,1.61l-.65,1.53a9.39,9.39,0,0,0-5-1.5c-3.33,0-4.81,1.48-4.81,3.3,0,5,11.2,2,11.2,8.6,0,2.68-2.13,5-6.78,5C168.6,110.75,165.92,109.79,164.57,108.38Z" transform="translate(0)"/><path class="cls-1" d="M171.33,111.5c-2.92,0-5.79-1-7.3-2.6l-.37-.38,1.45-2.87.73.72a8.19,8.19,0,0,0,5.49,2c2.62,0,4.13-.9,4.13-2.47s-1.67-2.13-4.4-2.79c-3-.74-6.8-1.66-6.8-5.87,0-2.65,2-5.74,7.46-5.74a11,11,0,0,1,6.07,1.74l.5.35-1.24,2.92L176.3,96a8.67,8.67,0,0,0-4.58-1.38c-2.58,0-4.06.93-4.06,2.55s1.68,2.14,4.43,2.81c3,.74,6.77,1.66,6.77,5.79C178.86,108.42,176.89,111.5,171.33,111.5Zm-5.84-3.28a9.7,9.7,0,0,0,5.84,1.78c3.72,0,6-1.61,6-4.22s-2.23-3.5-5.62-4.33c-2.62-.64-5.58-1.36-5.58-4.27,0-2,1.46-4.05,5.56-4.05a10.11,10.11,0,0,1,4.63,1.18l.07-.16a9.91,9.91,0,0,0-4.7-1.16c-3.74,0-6,1.58-6,4.24,0,2.82,2.24,3.58,5.65,4.41,2.61.63,5.55,1.35,5.55,4.25,0,1.92-1.48,4-5.63,4a10.19,10.19,0,0,1-5.77-1.78Z" transform="translate(0)"/><path class="cls-1" d="M44.46,54.87c2.19-2.15,3.12-4.28,3.09-6.39-.08-4.66-5-8.9-11-11.09-1.89,2.5-3.29,5.07-5.46,8.19C25.42,53.85,10.25,89.21,3.88,89.31c-1.35,0-2.28-3.92-2.37-9.64C1.25,63.83,7.24,33.9,27.9,33.57a29.94,29.94,0,0,1,9.29,1.35,71.52,71.52,0,0,1,8.64-9.47.84.84,0,0,1,.57-.27c.39,0,.78.25.78.6a.66.66,0,0,1-.18.35,79.07,79.07,0,0,0-8.93,9.12c6.5,2.45,10.63,7.22,10.72,12.24a10.53,10.53,0,0,1-3,7.35c9.37-.15,15.77-4.21,21.22-7.73a32.44,32.44,0,0,0,3-2,.43.43,0,0,1,.29-.1.39.39,0,0,1,.39.35.75.75,0,0,1-.38.53,25.28,25.28,0,0,1-2.38,1.71c-5.74,3.7-14.72,9.31-25,9.47-5.41.09-11.6-.87-12.74-5.34,0-.26-.11-.79-.11-1.23s0-.88.27-.88a.36.36,0,0,1,.29.08C34.11,53.36,39.15,54.77,44.46,54.87ZM35.58,37.05a26,26,0,0,0-8.51-1.36C9.59,36,2.81,64.34,3,78.41c.08,4.67,1,7.82,2.44,7.8C9.53,86.14,23.17,57.94,25,54.3A130.63,130.63,0,0,1,35.58,37.05Z" transform="translate(0)"/><path class="cls-2" d="M44.46,54.87c2.19-2.15,3.12-4.28,3.09-6.39-.08-4.66-5-8.9-11-11.09-1.89,2.5-3.29,5.07-5.46,8.19C25.42,53.85,10.25,89.21,3.88,89.31c-1.35,0-2.28-3.92-2.37-9.64C1.25,63.83,7.24,33.9,27.9,33.57a29.94,29.94,0,0,1,9.29,1.35,71.52,71.52,0,0,1,8.64-9.47.84.84,0,0,1,.57-.27c.39,0,.78.25.78.6a.66.66,0,0,1-.18.35,79.07,79.07,0,0,0-8.93,9.12c6.5,2.45,10.63,7.22,10.72,12.24a10.53,10.53,0,0,1-3,7.35c9.37-.15,15.77-4.21,21.22-7.73a32.44,32.44,0,0,0,3-2,.43.43,0,0,1,.29-.1.39.39,0,0,1,.39.35.75.75,0,0,1-.38.53,25.28,25.28,0,0,1-2.38,1.71c-5.74,3.7-14.72,9.31-25,9.47-5.41.09-11.6-.87-12.74-5.34,0-.26-.11-.79-.11-1.23s0-.88.27-.88a.36.36,0,0,1,.29.08C34.11,53.36,39.15,54.77,44.46,54.87ZM35.58,37.05a26,26,0,0,0-8.51-1.36C9.59,36,2.81,64.34,3,78.41c.08,4.67,1,7.82,2.44,7.8C9.53,86.14,23.17,57.94,25,54.3A130.63,130.63,0,0,1,35.58,37.05Z" transform="translate(0)"/><path class="cls-1" d="M85.47,53.42a25.66,25.66,0,0,1-7.06-.86,8,8,0,0,1-3.83,1.91c-1.74,0-3-.57-3.08-5.32,0-1.23.06-2.29.45-2.3.19,0,.29.18.39.26A17.16,17.16,0,0,0,79.16,51C83,47.82,87,42.12,87,39.4c0-1-.51-1.49-1.67-1.47-4.53.07-11.78,5.73-11.78,5.73-1.15.81-2.29,1.71-3.53,2.52-.49-.08-.68-.25-.69-.43s.29-.35.29-.35L73,43s10.4-7.83,15.42-7.91c1.44,0,2.13.58,2.15,1.64C90.57,40,84.89,47,80,51.21a24.25,24.25,0,0,0,6.19.7,31.07,31.07,0,0,0,16.43-5.37,32.52,32.52,0,0,0,3-2,.4.4,0,0,1,.29-.09.39.39,0,0,1,.39.35.77.77,0,0,1-.38.53,27.13,27.13,0,0,1-2.38,1.71C98.27,50.39,92.23,53.31,85.47,53.42ZM72.58,50.1c-.19,0-.29.09-.28.36,0,1,.33,2.72,2.45,2.69a6.1,6.1,0,0,0,2.69-.93,25.76,25.76,0,0,1-4.57-2A.4.4,0,0,0,72.58,50.1Z" transform="translate(0)"/><path class="cls-2" d="M85.47,53.42a25.66,25.66,0,0,1-7.06-.86,8,8,0,0,1-3.83,1.91c-1.74,0-3-.57-3.08-5.32,0-1.23.06-2.29.45-2.3.19,0,.29.18.39.26A17.16,17.16,0,0,0,79.16,51C83,47.82,87,42.12,87,39.4c0-1-.51-1.49-1.67-1.47-4.53.07-11.78,5.73-11.78,5.73-1.15.81-2.29,1.71-3.53,2.52-.49-.08-.68-.25-.69-.43s.29-.35.29-.35L73,43s10.4-7.83,15.42-7.91c1.44,0,2.13.58,2.15,1.64C90.57,40,84.89,47,80,51.21a24.25,24.25,0,0,0,6.19.7,31.07,31.07,0,0,0,16.43-5.37,32.52,32.52,0,0,0,3-2,.4.4,0,0,1,.29-.09.39.39,0,0,1,.39.35.77.77,0,0,1-.38.53,27.13,27.13,0,0,1-2.38,1.71C98.27,50.39,92.23,53.31,85.47,53.42ZM72.58,50.1c-.19,0-.29.09-.28.36,0,1,.33,2.72,2.45,2.69a6.1,6.1,0,0,0,2.69-.93,25.76,25.76,0,0,1-4.57-2A.4.4,0,0,0,72.58,50.1Z" transform="translate(0)"/><path class="cls-1" d="M111.47,54.76c7.72-.13,20.74-7.29,23.13-8.74a32.44,32.44,0,0,0,3-2,.37.37,0,0,1,.29-.09.38.38,0,0,1,.39.34.77.77,0,0,1-.38.54,27.13,27.13,0,0,1-2.38,1.71c-2.49,1.62-18,10.23-26.78,10.37-3.47.06-5.91-1.22-6-4.92-.13-8.53,10.56-16.27,18.09-16.39,1.93,0,3,1,3,2.68,0,2.37-3.87,5.34-6.08,6.34a2.08,2.08,0,0,1-.57.19c-.29,0-.39-.17-.39-.44a.7.7,0,0,1,.47-.71c1-.54,4.19-3.32,4.16-5.08,0-.88-.6-1.57-2.34-1.55-4.83.08-13.42,5.85-13.31,13C105.85,53.62,108.19,54.81,111.47,54.76Z" transform="translate(0)"/><path class="cls-2" d="M111.47,54.76c7.72-.13,20.74-7.29,23.13-8.74a32.44,32.44,0,0,0,3-2,.37.37,0,0,1,.29-.09.38.38,0,0,1,.39.34.77.77,0,0,1-.38.54,27.13,27.13,0,0,1-2.38,1.71c-2.49,1.62-18,10.23-26.78,10.37-3.47.06-5.91-1.22-6-4.92-.13-8.53,10.56-16.27,18.09-16.39,1.93,0,3,1,3,2.68,0,2.37-3.87,5.34-6.08,6.34a2.08,2.08,0,0,1-.57.19c-.29,0-.39-.17-.39-.44a.7.7,0,0,1,.47-.71c1-.54,4.19-3.32,4.16-5.08,0-.88-.6-1.57-2.34-1.55-4.83.08-13.42,5.85-13.31,13C105.85,53.62,108.19,54.81,111.47,54.76Z" transform="translate(0)"/><path class="cls-1" d="M138.33,50.19h.1c.87.07,15-13.71,22.56-13.83a1.71,1.71,0,0,1,2,1.9C163,41.78,158.4,49,158.41,50a.41.41,0,0,0,.4.35c3.18,0,15.64-11.69,19-14.39a2.64,2.64,0,0,1,1.34-.55c.58,0,.88.69.89,1.13,0,1.32-3.84,7.55-3.78,11.33,0,2.73,1.8,3.75,4.31,3.71,5.7-.09,15.27-5.43,17.08-6.61a32.44,32.44,0,0,0,3-2,.38.38,0,0,1,.29-.09.37.37,0,0,1,.39.34.78.78,0,0,1-.37.54,29.29,29.29,0,0,1-2.39,1.71c.67-.37-12.52,8-19.86,8.15-2.8,0-4.75-1.07-4.8-4.33,0-3.43,2-8.21,3.12-10.08,0-.26-.48-.25-.48-.25-6,3.88-16,14.25-19.76,14.31a1.47,1.47,0,0,1-1.37-1.39c0-1.06,5.26-8.8,5.21-12a1.3,1.3,0,0,0-1.47-1.39c-5.89.1-14.35,8.42-19.89,12.38-2.76,2-3.05,2.25-3.24,2.25a.39.39,0,0,1-.39-.17c-.1-.08-.1-.17-.1-.35a1.26,1.26,0,0,1,.27-.79c.19-.36,6.8-9.53,7.08-10a.2.2,0,0,0-.19-.17,4.5,4.5,0,0,0-1.63.91c-1.14.81-2.29,1.71-3.53,2.52-.48-.08-.68-.25-.68-.43s.28-.36.28-.36a60.94,60.94,0,0,0,8.86-7.18.85.85,0,0,1,.68-.28c.48,0,.77.17.78.52,0,1.67-5.87,7.4-9.17,12.64C138.23,50.1,138.24,50.19,138.33,50.19Z" transform="translate(0)"/><path class="cls-2" d="M138.33,50.19h.1c.87.07,15-13.71,22.56-13.83a1.71,1.71,0,0,1,2,1.9C163,41.78,158.4,49,158.41,50a.41.41,0,0,0,.4.35c3.18,0,15.64-11.69,19-14.39a2.64,2.64,0,0,1,1.34-.55c.58,0,.88.69.89,1.13,0,1.32-3.84,7.55-3.78,11.33,0,2.73,1.8,3.75,4.31,3.71,5.7-.09,15.27-5.43,17.08-6.61a32.44,32.44,0,0,0,3-2,.38.38,0,0,1,.29-.09.37.37,0,0,1,.39.34.78.78,0,0,1-.37.54,29.29,29.29,0,0,1-2.39,1.71c.67-.37-12.52,8-19.86,8.15-2.8,0-4.75-1.07-4.8-4.33,0-3.43,2-8.21,3.12-10.08,0-.26-.48-.25-.48-.25-6,3.88-16,14.25-19.76,14.31a1.47,1.47,0,0,1-1.37-1.39c0-1.06,5.26-8.8,5.21-12a1.3,1.3,0,0,0-1.47-1.39c-5.89.1-14.35,8.42-19.89,12.38-2.76,2-3.05,2.25-3.24,2.25a.39.39,0,0,1-.39-.17c-.1-.08-.1-.17-.1-.35a1.26,1.26,0,0,1,.27-.79c.19-.36,6.8-9.53,7.08-10a.2.2,0,0,0-.19-.17,4.5,4.5,0,0,0-1.63.91c-1.14.81-2.29,1.71-3.53,2.52-.48-.08-.68-.25-.68-.43s.28-.36.28-.36a60.94,60.94,0,0,0,8.86-7.18.85.85,0,0,1,.68-.28c.48,0,.77.17.78.52,0,1.67-5.87,7.4-9.17,12.64C138.23,50.1,138.24,50.19,138.33,50.19Z" transform="translate(0)"/><line class="cls-3" x1="178.68" y1="2.27" x2="24.12" y2="2.27"/><line class="cls-3" x1="26.42" y1="0.27" x2="26.42" y2="26.74"/><line class="cls-3" x1="176.64" y1="0.27" x2="176.64" y2="29.21"/><line class="cls-4" x1="24.12" y1="82.51" x2="178.81" y2="82.51"/><line class="cls-4" x1="176.51" y1="84.51" x2="176.51" y2="59.64"/><line class="cls-4" x1="26.16" y1="84.51" x2="26.16" y2="67.96"/></g></g></svg>